<?xml version="1.0" encoding="utf-8"?>
<!-- Generator: Adobe Illustrator 23.0.1, SVG Export Plug-In . SVG Version: 6.00 Build 0)  -->
<svg version="1.1" xmlns="http://www.w3.org/2000/svg" xmlns:xlink="http://www.w3.org/1999/xlink" x="0px" y="0px"
	 viewBox="0 0 180.9 585.9" style="enable-background:new 0 0 180.9 585.9;" xml:space="preserve">
<style type="text/css">
	.st0{display:none;}
	.st1{display:inline;fill:none;stroke:#000000;stroke-width:0.867;stroke-opacity:0.502;}
	.st2{display:inline;fill-rule:evenodd;clip-rule:evenodd;fill:#FFFFFF;stroke:#000000;stroke-width:0.867;stroke-opacity:0.502;}
	.st3{fill-rule:evenodd;clip-rule:evenodd;fill:#7F7F7F;stroke:#FFFFFF;stroke-width:0.867;}
	.st4{fill-rule:evenodd;clip-rule:evenodd;fill:#7F7F7F;stroke:#FFFFFF;}
	.st5{display:inline;}
	.st6{fill:none;stroke:#0000FF;stroke-width:4;}
	.st7{fill:none;stroke:#0000FF;stroke-width:4;stroke-linejoin:round;}
	.st8{fill-rule:evenodd;clip-rule:evenodd;fill:#E22828;stroke:#0000FF;stroke-width:4;stroke-linejoin:round;}
	.st9{fill:none;}
	.st10{fill-rule:evenodd;clip-rule:evenodd;fill:#E22828;stroke:#000000;stroke-width:1.25;stroke-linejoin:round;}
	.st11{fill-rule:evenodd;clip-rule:evenodd;fill:#008000;stroke:#000000;stroke-width:1.25;stroke-linejoin:round;}
	.st12{fill-rule:evenodd;clip-rule:evenodd;fill:#E81313;stroke:#FFFFFF;stroke-width:0.867;}
</style>
<g id="Layer_1">
</g>
<g id="Layer_2">
	<path class="st12" d="M176.1,508.1c-0.7-3.6,2.9-17.9-2.9-14.6c-5.8,6.3-10.1,13.9-14.7,21c-4.8,6.8-16.9,2.7-24.6,4
		c-9.4-2.9-9.9-14.3-5.8-21.8c4.5-8,11.9-18.1,7.5-27.4c0.2-6.3-3.4-6.7-8.9-4.5c-8.6,2.2-16-0.5-23-5.3c3.5-7.8,6.7-15.7,9.6-23.9
		c5.7-16.3,6.9-27.5,9.5-46.4c6.2-22.1,13.9-43,15.5-64.3c-4-57.5,23.8-107.7,24.9-166.1c7.4-7.8,12.8-10.4,17.2-9.7v-13.1
		c-30.3,2.7-16.8-29.1,0-57.5V0.4H0.4v585.1h180v-68.2C174.1,521.4,175.2,512.5,176.1,508.1z M148,139.5
		C187.6,142.1,115.8,159.9,148,139.5L148,139.5z"/>
</g>
</svg>
