<?xml version="1.0" encoding="utf-8"?>
<!-- Generator: Adobe Illustrator 23.0.1, SVG Export Plug-In . SVG Version: 6.00 Build 0)  -->
<svg version="1.1" xmlns="http://www.w3.org/2000/svg" xmlns:xlink="http://www.w3.org/1999/xlink" x="0px" y="0px"
	 viewBox="0 0 180.9 585.9" style="enable-background:new 0 0 180.9 585.9;" xml:space="preserve">
<style type="text/css">
	.st0{display:none;}
	.st1{display:inline;fill:none;stroke:#000000;stroke-width:0.867;stroke-opacity:0.502;}
	.st2{display:inline;fill-rule:evenodd;clip-rule:evenodd;fill:#FFFFFF;stroke:#000000;stroke-width:0.867;stroke-opacity:0.502;}
	.st3{fill-rule:evenodd;clip-rule:evenodd;fill:#7F7F7F;stroke:#FFFFFF;stroke-width:0.867;}
	.st4{fill-rule:evenodd;clip-rule:evenodd;fill:#7F7F7F;stroke:#FFFFFF;}
	.st5{display:inline;}
	.st6{fill:none;stroke:#0000FF;stroke-width:4;}
	.st7{fill:none;stroke:#0000FF;stroke-width:4;stroke-linejoin:round;}
	.st8{fill-rule:evenodd;clip-rule:evenodd;fill:#E22828;stroke:#0000FF;stroke-width:4;stroke-linejoin:round;}
	.st9{fill:none;}
	.st10{fill-rule:evenodd;clip-rule:evenodd;fill:#E22828;stroke:#000000;stroke-width:1.25;stroke-linejoin:round;}
	.st11{fill-rule:evenodd;clip-rule:evenodd;fill:#008000;stroke:#000000;stroke-width:1.25;stroke-linejoin:round;}
	.st12{fill-rule:evenodd;clip-rule:evenodd;fill:#E81313;stroke:#FFFFFF;stroke-width:0.867;}
</style>
<g id="Layer_1">
</g>
<g id="Layer_2">
	<path class="st12" d="M0.4,0.4v167.2c16.9-9.1,50.4,13,48.4,43.6c-19.7,48.2,21.9,47.1,48.8,47.1c6.9,50-49,60.1-83,58.3
		c-0.7,31.3,35.4,55.6,15.2,86.3c34.1,23-67.3,42.9,2.7,52.9c26.9-6.2,36.8,22.5,65.1,16.2c3.6,5.5,2.2,5.7,6.5,10
		c-6.2,7.2-10.6,15.1-13.7,23.7c-1.3,10-7.9,18-16.4,23.1c-4.6,7.1-23.1,6-17.4-4.4c7.8-9.4-3.7-13.5-11.8-14.5
		c-7.6,3-13.3-2.3-10.6-10.1c0.3-6.3,16.9-15.3,4.1-18.1c-8.8,2.3-10.2-7.8-16.3-10.1c-10.5-7.9-5.6,12.7-14.9,13.5
		c-2.5,0.3-4.7,1.4-6.7,2.9v97.5h180V0.4H0.4z"/>
</g>
</svg>
