<?xml version="1.0" encoding="utf-8"?>
<!-- Generator: Adobe Illustrator 23.0.3, SVG Export Plug-In . SVG Version: 6.00 Build 0)  -->
<svg version="1.1" id="Layer_1" xmlns="http://www.w3.org/2000/svg" xmlns:xlink="http://www.w3.org/1999/xlink" x="0px" y="0px"
	 viewBox="0 0 237.4 495.9" style="enable-background:new 0 0 237.4 495.9;" xml:space="preserve">
<style type="text/css">
	.st0{fill-rule:evenodd;clip-rule:evenodd;fill:#DA121A;}
</style>
<path id="nh-shape" class="st0" d="M100.5,3.8C86.6,26.2,25.9,108.5,82.2,97.9c25.8-25.1,50-54.2,28.1-87.1
	C113.1-1.5,104.6-2.4,100.5,3.8z M44.3,102.1C12.1,122.5,83.9,104.7,44.3,102.1L44.3,102.1z M89.5,473c-4.2,1.6-8.3,3.4-11.9,6.3
	c-7.3,5.5-6.2-4-5.2-8.6c-0.7-3.6,2.9-17.9-2.9-14.6c-5.8,6.3-10.1,13.9-14.7,21c-4.8,6.8-16.9,2.7-24.6,4
	c-9.4-2.9-9.9-14.3-5.8-21.8c4.5-8,11.9-18.1,7.5-27.4c0.2-6.3-3.4-6.7-8.9-4.5c-8.6,2.2-16-0.5-23-5.3c3.5-7.8,6.7-15.7,9.6-23.9
	c5.7-16.3,6.9-27.5,9.5-46.4c6.2-22.1,13.9-43,15.5-64.3c-4-57.5,23.8-107.7,24.9-166.1c36.1-38.1,26.7,48.4,65,34.1
	c-4.6-50,60.4-23.9,57.6,18.3c-19.7,48.2,21.9,47.1,48.8,47.1c6.9,50-49,60.1-83,58.3c-0.7,31.3,35.4,55.6,15.2,86.3
	c34.1,23-67.3,42.9,2.7,52.9c26.9-6.2,36.8,22.5,65.1,16.2c3.6,5.5,2.2,5.7,6.5,10c-6.2,7.2-10.6,15.1-13.7,23.7
	c-1.3,10-7.9,18-16.4,23.1c-4.6,7.1-23.1,6-17.4-4.4c7.8-9.4-3.7-13.5-11.8-14.5c-7.6,3-13.3-2.3-10.6-10.1
	c0.3-6.3,16.9-15.3,4.1-18.1c-8.8,2.3-10.2-7.8-16.3-10.1c-10.5-7.9-5.6,12.7-14.9,13.5c-8.2,0.9-12.5,11.2-20.9,9.2
	c-10.2-5.9-10.9,7.2-17.2,11.2C98.1,470.1,93.7,471.4,89.5,473z"/>
</svg>
